<?xml version="1.0" encoding="iso-8859-1"?>
<!-- Generator: Adobe Illustrator 19.0.0, SVG Export Plug-In . SVG Version: 6.00 Build 0)  -->
<svg version="1.1" id="Capa_1" xmlns="http://www.w3.org/2000/svg" xmlns:xlink="http://www.w3.org/1999/xlink" x="0px" y="0px"
	 viewBox="0 0 512 512" style="enable-background:new 0 0 512 512;" xml:space="preserve">
<g>
	<g>
		<path d="M512,239.967c0-38.307-12.567-74.375-36.344-104.307c-22.786-28.684-54.707-49.358-90-58.339
			c-11.447-13.92-25.094-25.996-40.503-35.676C318.478,24.888,287.649,16.031,256,16.031c-52.112,0-98.752,23.877-129.557,61.264
			c-35.288,8.957-67.207,29.595-90.01,58.253C12.598,165.501,0,201.608,0,239.967c0,69.199,42.102,128.746,102.034,154.383
			c-21.124,6.321-38.21,6.456-38.42,6.456c-3.371,0-6.328,2.249-7.228,5.498c-0.9,3.249,0.479,6.699,3.369,8.433
			c55.604,33.363,118.882,29.261,151.653,23.849c5.28-0.873,10.638,0.604,14.697,4.048c4.044,3.43,6.362,8.449,6.362,13.769v32.064
			c0,4.142,3.357,7.5,7.5,7.5s7.5-3.358,7.5-7.5v-50.202c0-19.788-14.583-36.617-33.921-39.146
			c-30.324-3.967-56.109-14.254-76.64-30.575c-3.243-2.579-7.96-2.039-10.538,1.203c-2.577,3.243-2.039,7.96,1.204,10.538
			c4.735,3.764,9.727,7.219,14.94,10.397C70.25,378.586,15,315.613,15,239.967c0-34.931,11.47-67.808,33.17-95.078
			c16.795-21.107,39.013-37.433,63.885-47.224c-15.151,25.208-23.877,54.698-23.877,86.189c0,21.481,4.135,42.73,12.055,62.501
			c-9.893-6.292-16.299-12.702-22.617-19.024l-0.683-0.683c-2.104-2.103-5.251-2.765-8.023-1.686
			c-2.772,1.079-4.645,3.693-4.773,6.665c-0.125,2.903-2.587,71.702,39.743,124.924c2.579,3.242,7.298,3.78,10.539,1.201
			c3.241-2.578,3.779-7.296,1.201-10.538c-26.434-33.234-33.801-74.288-35.804-97.249c15.511,13.007,39.435,26.413,94.553,37.437
			c30.549,6.11,52.271,22.72,64.56,49.368c9.388,20.356,9.571,39.297,9.572,39.471c0,4.142,3.357,7.5,7.5,7.5s7.5-3.358,7.5-7.5
			c0-0.184,0.106-18.651,9.348-38.981c12.243-26.935,34.04-43.709,64.784-49.858c55.163-11.033,79.081-24.451,94.591-37.468
			c-1.252,14.623-4.685,36.604-13.898,59.25c-9.288,22.826-22.565,41.75-39.465,56.249c-21.143,18.139-48.195,29.473-80.406,33.687
			c-19.338,2.529-33.921,19.358-33.921,39.146v50.202c0,4.142,3.357,7.5,7.5,7.5s7.5-3.358,7.5-7.5v-32.064
			c0-5.32,2.318-10.339,6.362-13.769c4.06-3.445,9.417-4.921,14.697-4.048c32.771,5.414,96.048,9.514,151.653-23.849
			c2.891-1.734,4.27-5.184,3.369-8.433c-0.899-3.249-3.856-5.498-7.228-5.498c-0.217,0-17.247-0.094-38.434-6.45
			C469.891,368.722,512,309.171,512,239.967z M167.822,407.79c4.12,0,8.287-0.155,12.393-0.456
			c9.916,2.983,20.379,5.218,31.387,6.658c8.042,1.052,14.734,6.169,18.235,13.164c-6.337-3.342-13.648-4.563-20.874-3.37
			c-26.437,4.368-73.973,7.867-119.517-10.894c10.158-1.969,22.398-5.27,35.002-10.797
			C138.29,405.802,152.827,407.79,167.822,407.79z M422.555,412.893c-45.545,18.76-93.081,15.261-119.518,10.893
			c-7.229-1.192-14.538,0.028-20.873,3.369c3.5-6.994,10.193-12.111,18.234-13.163c11.339-1.483,21.79-3.751,31.426-6.659
			c4.093,0.299,8.242,0.457,12.354,0.457c14.995,0,29.532-1.988,43.374-5.695C400.156,407.622,412.397,410.923,422.555,412.893z
			 M369.351,390.705c33.683-20.569,52.451-50.272,62.866-75.868c17.198-42.267,15.718-81.558,15.646-83.21
			c-0.129-2.972-2.001-5.586-4.773-6.665c-2.776-1.08-5.921-0.417-8.023,1.686l-0.683,0.683
			c-6.318,6.323-12.724,12.732-22.616,19.024c7.919-19.77,12.054-41.02,12.054-62.5c0-14.209-1.779-28.326-5.29-41.96
			c-1.033-4.011-5.121-6.43-9.133-5.393c-4.011,1.033-6.426,5.122-5.393,9.133c3.195,12.412,4.815,25.271,4.815,38.22
			c0,25.706-6.5,51.039-18.782,73.422c-13.391,5.372-31.059,10.559-55.35,15.417c-44.522,8.905-65.631,36.651-75.498,58.36
			c-1.192,2.623-2.251,5.216-3.192,7.758c-0.941-2.542-2-5.135-3.192-7.758c-9.867-21.708-30.976-49.455-75.498-58.36
			c-24.292-4.859-41.96-10.045-55.351-15.417c-12.281-22.384-18.781-47.716-18.781-73.421c0-84.267,68.556-152.823,152.822-152.823
			c28.822,0,56.893,8.063,81.174,23.315c23.635,14.847,42.767,35.841,55.328,60.712c1.866,3.697,6.378,5.181,10.075,3.314
			c3.697-1.868,5.181-6.378,3.313-10.076c-1.823-3.61-3.781-7.141-5.851-10.596c24.874,9.812,47.089,26.163,63.87,47.288
			c21.647,27.251,33.09,60.094,33.09,94.978C497,315.66,441.681,378.665,369.351,390.705z"/>
	</g>
</g>
<g>
</g>
<g>
</g>
<g>
</g>
<g>
</g>
<g>
</g>
<g>
</g>
<g>
</g>
<g>
</g>
<g>
</g>
<g>
</g>
<g>
</g>
<g>
</g>
<g>
</g>
<g>
</g>
<g>
</g>
</svg>
