<?xml version="1.0" encoding="utf-8"?>
<!-- Generator: Adobe Illustrator 17.0.1, SVG Export Plug-In . SVG Version: 6.00 Build 0)  -->
<!DOCTYPE svg PUBLIC "-//W3C//DTD SVG 1.1//EN" "http://www.w3.org/Graphics/SVG/1.1/DTD/svg11.dtd">
<svg version="1.1" id="Layer_1" xmlns="http://www.w3.org/2000/svg" xmlns:xlink="http://www.w3.org/1999/xlink" x="0px" y="0px"
	 width="155.837px" height="35.15px" viewBox="0 0 155.837 35.15" enable-background="new 0 0 155.837 35.15" xml:space="preserve">
<g>
	<path fill="#CE000B" d="M4.424,31.463h12.291v3.442H0V0.492h16.715v3.441H4.424V15.24h10.815v3.441H4.424V31.463z"/>
	<polygon fill="#CE000B" points="23.908,25.81 21.631,0.492 28.676,0.492 26.202,25.81 	"/>
	<rect x="22.843" y="29.742" fill="#CE000B" width="4.424" height="5.408"/>
	<polygon fill="#FFFFFF" points="54.24,0.492 54.24,34.905 49.815,34.905 49.815,3.933 39.49,3.933 39.49,34.905 35.068,34.905 
		35.068,0.492 	"/>
	<path fill="#FFFFFF" d="M65.546,34.905h-4.425V0.984c1.246-0.361,2.499-0.615,3.764-0.762C66.144,0.074,67.513,0,68.987,0
		C70.956,0,72.624,0.206,74,0.614c1.378,0.411,2.491,1.091,3.345,2.042c0.851,0.951,1.473,2.212,1.867,3.784
		c0.394,1.573,0.59,3.525,0.59,5.85c0,2.393-0.188,4.393-0.565,5.999c-0.377,1.606-0.953,2.892-1.722,3.858
		c-0.771,0.967-1.738,1.655-2.9,2.064c-1.164,0.411-2.548,0.614-4.155,0.614c-0.755,0-1.605-0.047-2.557-0.146
		c-0.952-0.1-1.738-0.213-2.359-0.345L65.546,34.905L65.546,34.905z M68.987,21.384c1.114,0,2.072-0.14,2.877-0.417
		c0.801-0.277,1.465-0.763,1.991-1.45c0.523-0.688,0.909-1.622,1.155-2.801c0.244-1.18,0.369-2.655,0.369-4.424
		c0-1.769-0.123-3.244-0.369-4.424c-0.246-1.18-0.632-2.114-1.155-2.803c-0.526-0.688-1.19-1.171-1.991-1.45
		c-0.804-0.278-1.763-0.418-2.877-0.418h-3.441v18.189h3.441V21.384z"/>
	<path fill="#FFFFFF" d="M100.448,9.341h-0.245L90.125,34.905H85.21V0.492h4.423v25.564h0.249l9.832-25.564h5.162v34.414h-4.427
		V9.341L100.448,9.341z"/>
	<path fill="#FFFFFF" d="M130.928,0.492v34.414h-4.424V19.173h-10.325v15.732h-4.423V0.492h4.423v15.239h10.325V0.492H130.928z"/>
	<path fill="#FFFFFF" d="M135.679,0.492h20.158v4.261h-7.866v30.153h-4.424V4.752h-7.868V0.492z"/>
</g>
</svg>
